<svg width="45" height="43" viewBox="0 0 45 43" fill="none" xmlns="http://www.w3.org/2000/svg">
<rect width="45" height="43" rx="21.5" fill="#B6487B"/>
<g clip-path="url(#clip0_60_660)">
<path d="M26.625 14.2734C25.7804 14.286 24.9543 14.5113 24.23 14.9265C23.5058 15.3418 22.909 15.9323 22.5 16.6384C22.0909 15.9323 21.4942 15.3418 20.7699 14.9265C20.0456 14.5113 19.2195 14.286 18.375 14.2734C17.0287 14.3293 15.7602 14.8921 14.8468 15.8388C13.9334 16.7855 13.4492 18.0392 13.5 19.3259C13.5 22.5846 17.0895 26.1436 20.1 28.5566C20.7721 29.0963 21.622 29.3923 22.5 29.3923C23.378 29.3923 24.2278 29.0963 24.9 28.5566C27.9105 26.1436 31.5 22.5846 31.5 19.3259C31.5508 18.0392 31.0666 16.7855 30.1531 15.8388C29.2397 14.8921 27.9713 14.3293 26.625 14.2734ZM23.9362 27.4601C23.5342 27.7836 23.0255 27.961 22.5 27.961C21.9744 27.961 21.4657 27.7836 21.0637 27.4601C17.2102 24.3706 15 21.4064 15 19.3259C14.9487 18.4192 15.2747 17.5298 15.907 16.8518C16.5392 16.1738 17.4264 15.7622 18.375 15.7068C19.3235 15.7622 20.2107 16.1738 20.8429 16.8518C21.4752 17.5298 21.8012 18.4192 21.75 19.3259C21.75 19.516 21.829 19.6983 21.9696 19.8327C22.1103 19.9671 22.3011 20.0426 22.5 20.0426C22.6989 20.0426 22.8896 19.9671 23.0303 19.8327C23.171 19.6983 23.25 19.516 23.25 19.3259C23.1987 18.4192 23.5247 17.5298 24.157 16.8518C24.7892 16.1738 25.6764 15.7622 26.625 15.7068C27.5735 15.7622 28.4607 16.1738 29.0929 16.8518C29.7252 17.5298 30.0512 18.4192 30 19.3259C30 21.4064 27.7897 24.3706 23.9362 27.4572V27.4601Z" fill="white"/>
</g>
<defs>
<clipPath id="clip0_60_660">
<rect width="18" height="17.2" fill="white" transform="translate(13.5 12.8999)"/>
</clipPath>
</defs>
</svg>
