<svg width="48" height="48" viewBox="0 0 48 48" fill="none" xmlns="http://www.w3.org/2000/svg">
<path opacity="0.2" d="M24 37.4999C21.1181 37.4999 16.3556 37.4662 10.875 34.1924C5.39439 30.9187 3.62064 26.8124 3.05251 24.7162C2.99871 24.5281 2.98251 24.3312 3.00485 24.1368C3.0272 23.9424 3.08763 23.7543 3.18272 23.5833C3.2778 23.4123 3.40565 23.2617 3.55898 23.1402C3.7123 23.0186 3.88808 22.9285 4.07626 22.8749C5.96933 22.4035 7.94401 22.3625 9.85501 22.7549C8.42439 18.2774 9.10501 14.7974 9.66751 13.0593C9.78537 12.701 10.0308 12.3985 10.3572 12.2094C10.6835 12.0203 11.068 11.9577 11.4375 12.0337C12.855 12.3355 15.24 13.1249 17.7375 15.1499C16.8944 17.4544 16.4751 19.8924 16.5 22.3462C16.5 33.3749 24 37.4999 24 37.4999ZM43.9238 22.8749C42.0307 22.4035 40.056 22.3625 38.145 22.7549C39.5756 18.2774 38.895 14.7974 38.3325 13.0593C38.2147 12.701 37.9692 12.3985 37.6428 12.2094C37.3165 12.0203 36.932 11.9577 36.5625 12.0337C35.1525 12.3355 32.7675 13.1212 30.27 15.1499C31.1106 17.4549 31.5273 19.8929 31.5 22.3462C31.5 33.3749 24 37.4999 24 37.4999C26.8819 37.4999 31.6444 37.4662 37.125 34.1924C42.6056 30.9187 44.3794 26.8162 44.9475 24.7162C45.0013 24.5281 45.0175 24.3312 44.9952 24.1368C44.9728 23.9424 44.9124 23.7543 44.8173 23.5833C44.7222 23.4123 44.5944 23.2617 44.441 23.1402C44.2877 23.0186 44.1119 22.9285 43.9238 22.8749Z" fill="#B6487B"/>
<path d="M46.0931 22.8056C45.9018 22.4695 45.6454 22.1748 45.3389 21.9388C45.0324 21.7028 44.682 21.5303 44.3081 21.4313C42.9517 21.0821 41.55 20.9417 40.1513 21.015C40.9013 17.2931 40.3387 14.3494 39.765 12.6038C39.5363 11.8867 39.0488 11.2805 38.3974 10.9033C37.7461 10.5262 36.9776 10.4051 36.2419 10.5638C34.3339 10.9886 32.5197 11.7587 30.8888 12.8363C29.6942 10.3963 27.9551 8.26331 25.8056 6.60187C25.2847 6.21119 24.6511 6 24 6C23.3489 6 22.7153 6.21119 22.1944 6.60187C20.0445 8.26283 18.3053 10.3959 17.1113 12.8363C15.4803 11.7587 13.6661 10.9886 11.7581 10.5638C11.0224 10.4051 10.2539 10.5262 9.60259 10.9033C8.95125 11.2805 8.4637 11.8867 8.235 12.6038C7.6725 14.3494 7.11 17.2913 7.84875 21.015C6.45003 20.9417 5.0483 21.0821 3.69188 21.4313C3.31798 21.5303 2.96756 21.7028 2.66108 21.9388C2.35461 22.1748 2.09821 22.4695 1.90688 22.8056C1.70664 23.15 1.57698 23.5308 1.52548 23.9258C1.47397 24.3208 1.50164 24.7221 1.60688 25.1063C2.2425 27.4631 4.19438 31.9463 10.1063 35.4788C16.0181 39.0113 21.2119 39 24.0094 39C26.8069 39 32.01 39 37.8844 35.4788C43.7963 31.9463 45.7481 27.4631 46.3838 25.1063C46.4904 24.7227 46.5196 24.3217 46.4697 23.9267C46.4198 23.5317 46.2918 23.1506 46.0931 22.8056ZM11.0888 13.5263C11.091 13.5169 11.0967 13.5088 11.1047 13.5036C11.1127 13.4984 11.1225 13.4964 11.1319 13.4981C12.8766 13.8921 14.523 14.6365 15.9713 15.6863C15.312 17.8436 14.9845 20.0886 15 22.3444C15 25.8581 15.7069 28.7194 16.7081 31.0219C15.2847 29.5972 14.0531 27.9931 13.0444 26.25C9.66563 20.3663 10.3688 15.75 11.0888 13.5263ZM11.6513 32.9044C6.65063 29.9194 5.02875 26.2594 4.5 24.3188C5.87965 23.979 7.31131 23.9045 8.71875 24.0994C9.18856 25.358 9.76242 26.5754 10.4344 27.7388C12.0842 30.5829 14.2455 33.0977 16.8094 35.1563C14.9964 34.6348 13.2597 33.8777 11.6438 32.9044H11.6513ZM24 35.7C22.2506 34.3988 18 30.4069 18 22.3444C18 14.3812 22.1963 10.3575 24 9C25.8038 10.3613 30 14.385 30 22.3481C30 30.4069 25.7494 34.3988 24 35.7ZM32.0288 15.6863C33.4771 14.6372 35.1236 13.8934 36.8681 13.5C36.8775 13.4983 36.8873 13.5003 36.8953 13.5055C36.9033 13.5107 36.909 13.5188 36.9113 13.5281C37.6313 15.75 38.3344 20.3663 34.9556 26.25C33.9478 27.9954 32.7162 29.6015 31.2919 31.0275C32.2931 28.7288 33 25.8638 33 22.35C33.0161 20.0923 32.6886 17.8454 32.0288 15.6863ZM43.5 24.3225C42.9806 26.2444 41.3625 29.9119 36.3581 32.9044C34.7421 33.8771 33.0054 34.6335 31.1925 35.1544C33.7564 33.0958 35.9177 30.5811 37.5675 27.7369C38.2395 26.5735 38.8133 25.3562 39.2831 24.0975C40.6902 23.9037 42.1213 23.9794 43.5 24.3206V24.3225Z" fill="#B6487B"/>
</svg>
