<svg width="30" height="36" viewBox="0 0 30 36" fill="none" xmlns="http://www.w3.org/2000/svg">
<path fill-rule="evenodd" clip-rule="evenodd" d="M10.1786 6.75V3.375H19.8214V6.75H10.1786ZM6.96429 6.75V2.25C6.96429 1.65326 7.19005 1.08097 7.59191 0.65901C7.99378 0.237053 8.53882 0 9.10714 0L20.8929 0C21.4612 0 22.0062 0.237053 22.4081 0.65901C22.8099 1.08097 23.0357 1.65326 23.0357 2.25V6.75H28.3929C28.8191 6.75 29.2279 6.92779 29.5293 7.24426C29.8307 7.56072 30 7.98995 30 8.4375C30 8.88505 29.8307 9.31428 29.5293 9.63074C29.2279 9.94721 28.8191 10.125 28.3929 10.125H27.6107L26.0186 31.8442C25.936 32.9748 25.45 34.0309 24.6578 34.8013C23.8656 35.5718 22.8256 35.9999 21.7457 36H8.25429C7.17445 35.9999 6.13444 35.5718 5.34224 34.8013C4.55004 34.0309 4.06404 32.9748 3.98143 31.8442L2.38929 10.125H1.60714C1.1809 10.125 0.772119 9.94721 0.470721 9.63074C0.169324 9.31428 0 8.88505 0 8.4375C0 7.98995 0.169324 7.56072 0.470721 7.24426C0.772119 6.92779 1.1809 6.75 1.60714 6.75H6.96429ZM5.61429 10.125H24.3857L22.8129 31.5855C22.7923 31.868 22.6711 32.132 22.4732 32.3247C22.2754 32.5175 22.0156 32.6247 21.7457 32.625H8.25429C7.98443 32.6247 7.72462 32.5175 7.52678 32.3247C7.32894 32.132 7.20765 31.868 7.18714 31.5855L5.61429 10.125Z" fill="#B6487B"/>
</svg>
